<svg xmlns="http://www.w3.org/2000/svg" xmlns:xlink="http://www.w3.org/1999/xlink" fill="none" version="1.1" width="24" height="22.405881881713867" viewBox="0 0 24 22.405881881713867"><defs><clipPath id="master_svg0_17_1449"><rect x="0" y="0" width="24" height="22.405881881713867" rx="0"/></clipPath></defs><g clip-path="url(#master_svg0_17_1449)"><g><path d="M3.933578,3.73431396484375L20.0664,3.73431396484375C20.582,3.73431396484375,21,4.15229096484375,21,4.66789196484375C21,5.18349396484375,20.582,5.60147396484375,20.0664,5.60147396484375L3.933578,5.60147396484375C3.417977,5.60147396484375,3,5.18349396484375,3,4.66789196484375C3,4.15229096484375,3.417977,3.73431396484375,3.933578,3.73431396484375M3.933579,10.26936396484375L14.0664,10.26936396484375C14.582,10.26936396484375,15,10.68734396484375,15,11.202943964843751C15,11.71854396484375,14.582,12.13652396484375,14.0664,12.13652396484375L3.933579,12.13652396484375C3.417977,12.13652396484375,3,11.71854396484375,3,11.202943964843751C3,10.68734396484375,3.417977,10.26936396484375,3.933579,10.26936396484375M3.933578,16.80441396484375L20.0664,16.80441396484375C20.582,16.80441396484375,21,17.22241396484375,21,17.738013964843752C21,18.25361396484375,20.582,18.67161396484375,20.0664,18.67161396484375L3.933578,18.67161396484375C3.417977,18.67161396484375,3,18.25361396484375,3,17.738013964843752C3,17.22241396484375,3.417977,16.80441396484375,3.933578,16.80441396484375" fill="#5F5F5F" fill-opacity="1" style="mix-blend-mode:passthrough"/></g></g></svg>